<svg xmlns="http://www.w3.org/2000/svg" xmlns:xlink="http://www.w3.org/1999/xlink" viewBox="0 0 24 30" version="1.1" x="0px" y="0px"><title>icon/line-spacing</title><desc>Created with Sketch.</desc><g stroke="none" stroke-width="1" fill="none" fill-rule="evenodd"><path d="M18,2.70710678 L18,20.2928932 L20.1464466,18.1464466 C20.3417088,17.9511845 20.6582912,17.9511845 20.8535534,18.1464466 C21.0488155,18.3417088 21.0488155,18.6582912 20.8535534,18.8535534 L17.8535534,21.8535534 C17.6582912,22.0488155 17.3417088,22.0488155 17.1464466,21.8535534 L14.1464466,18.8535534 C13.9511845,18.6582912 13.9511845,18.3417088 14.1464466,18.1464466 C14.3417088,17.9511845 14.6582912,17.9511845 14.8535534,18.1464466 L17,20.2928932 L17,2.70710678 L14.8535534,4.85355339 C14.6582912,5.04881554 14.3417088,5.04881554 14.1464466,4.85355339 C13.9511845,4.65829124 13.9511845,4.34170876 14.1464466,4.14644661 L17.1464466,1.14644661 C17.3417088,0.951184464 17.6582912,0.951184464 17.8535534,1.14644661 L20.8535534,4.14644661 C21.0488155,4.34170876 21.0488155,4.65829124 20.8535534,4.85355339 C20.6582912,5.04881554 20.3417088,5.04881554 20.1464466,4.85355339 L18,2.70710678 Z M2.5,4 C2.22385763,4 2,3.77614237 2,3.5 C2,3.22385763 2.22385763,3 2.5,3 L10.5,3 C10.7761424,3 11,3.22385763 11,3.5 C11,3.77614237 10.7761424,4 10.5,4 L2.5,4 Z M2.5,7 C2.22385763,7 2,6.77614237 2,6.5 C2,6.22385763 2.22385763,6 2.5,6 L9.5,6 C9.77614237,6 10,6.22385763 10,6.5 C10,6.77614237 9.77614237,7 9.5,7 L2.5,7 Z M2.5,10 C2.22385763,10 2,9.77614237 2,9.5 C2,9.22385763 2.22385763,9 2.5,9 L10.5,9 C10.7761424,9 11,9.22385763 11,9.5 C11,9.77614237 10.7761424,10 10.5,10 L2.5,10 Z M2.5,13 C2.22385763,13 2,12.7761424 2,12.5 C2,12.2238576 2.22385763,12 2.5,12 L9.5,12 C9.77614237,12 10,12.2238576 10,12.5 C10,12.7761424 9.77614237,13 9.5,13 L2.5,13 Z M2.5,16 C2.22385763,16 2,15.7761424 2,15.5 C2,15.2238576 2.22385763,15 2.5,15 L10.5,15 C10.7761424,15 11,15.2238576 11,15.5 C11,15.7761424 10.7761424,16 10.5,16 L2.5,16 Z M2.5,19 C2.22385763,19 2,18.7761424 2,18.5 C2,18.2238576 2.22385763,18 2.5,18 L9.5,18 C9.77614237,18 10,18.2238576 10,18.5 C10,18.7761424 9.77614237,19 9.5,19 L2.5,19 Z" fill="#000000" fill-rule="nonzero"/></g><text x="0" y="39" fill="#000000" font-size="5px" font-weight="bold" font-family="'Helvetica Neue', Helvetica, Arial-Unicode, Arial, Sans-serif">Created by Travis Avery</text><text x="0" y="44" fill="#000000" font-size="5px" font-weight="bold" font-family="'Helvetica Neue', Helvetica, Arial-Unicode, Arial, Sans-serif">from the Noun Project</text></svg>